<svg width="822" height="741" viewBox="0 0 822 741" fill="none" xmlns="http://www.w3.org/2000/svg">
  <g filter="url(#filter0_d_17_3033)">
    <path d="M618.429 187.923L618.473 189.539L620.081 189.375C626.057 188.764 632.119 188.448 638.252 188.448C735.559 188.448 814.442 267.336 814.442 364.644C814.442 461.951 735.559 540.834 638.252 540.834H589.132H587.632V542.334V616.418V617.918H589.132H672.041H673.304L673.519 616.673C675.889 602.931 687.889 592.444 702.292 592.444C718.396 592.444 731.5 605.547 731.5 621.651C731.5 637.756 718.396 650.859 702.292 650.859C687.889 650.859 675.889 640.371 673.519 626.63L673.304 625.385H672.041H583.899C581.837 625.385 580.165 623.713 580.165 621.651V542.334V540.834H578.665H527.783H526.283V542.334V699.399V700.899H527.783H582.997H584.261L584.475 699.654C586.846 685.912 598.846 675.425 613.25 675.425C629.353 675.425 642.457 688.528 642.457 704.632C642.457 720.737 629.353 733.84 613.25 733.84C598.846 733.84 586.846 723.352 584.475 709.611L584.261 708.366H582.997H522.55C520.488 708.366 518.816 706.694 518.816 704.632V542.334V540.834H517.316H466.566H465.066V542.334V614.662C465.066 616.724 463.395 618.396 461.333 618.396C459.271 618.396 457.599 616.724 457.599 614.662V542.334V540.834H456.099H400.248H398.748V542.334V683.299C398.748 685.361 397.077 687.033 395.015 687.033C392.953 687.033 391.281 685.361 391.281 683.299V542.334V540.834H389.781H333.93H332.43V542.334V614.662C332.43 616.724 330.758 618.396 328.696 618.396C326.634 618.396 324.963 616.724 324.963 614.662V542.334V540.834H323.463H272.713H271.213V542.334V704.632C271.213 706.694 269.542 708.366 267.48 708.366H207.031H205.768L205.553 709.611C203.183 723.352 191.183 733.84 176.779 733.84C160.675 733.84 147.571 720.737 147.571 704.632C147.571 688.528 160.675 675.425 176.779 675.425C191.183 675.425 203.183 685.912 205.553 699.654L205.768 700.899H207.031H262.246H263.746V699.399V542.334V540.834H262.246H211.364H209.864V542.334V621.651C209.864 623.713 208.192 625.385 206.13 625.385H117.989H116.725L116.511 626.63C114.14 640.371 102.14 650.859 87.7364 650.859C71.6326 650.859 58.5287 637.755 58.5287 621.651C58.5287 605.547 71.6326 592.444 87.7364 592.444C102.14 592.444 114.14 602.931 116.511 616.673L116.725 617.918H117.989H200.896H202.396V616.418V542.334V540.834H200.896H150.8C68.3739 540.834 1.55823 474.018 1.55823 391.592C1.55823 323.685 46.9116 266.365 108.988 248.289L110.487 247.853L109.99 246.372C106.385 235.617 104.433 224.102 104.433 212.127C104.433 152.637 152.656 104.408 212.146 104.408C226.528 104.408 240.25 107.228 252.795 112.34L254.11 112.876L254.717 111.592C285.319 46.9019 351.18 2.16003 427.483 2.16003C531.226 2.16003 615.642 84.8583 618.429 187.923ZM65.9959 621.651C65.9959 633.64 75.747 643.392 87.736 643.392C99.7248 643.392 109.476 633.64 109.476 621.651C109.476 609.662 99.7248 599.911 87.736 599.911C75.747 599.911 65.9959 609.662 65.9959 621.651ZM155.039 704.632C155.039 716.621 164.79 726.373 176.779 726.373C188.768 726.373 198.519 716.621 198.52 704.632C198.52 692.643 188.768 682.892 176.779 682.892C164.79 682.892 155.039 692.644 155.039 704.632ZM634.99 704.633C634.99 692.644 625.238 682.892 613.25 682.892C601.261 682.892 591.51 692.644 591.51 704.633C591.51 716.622 601.261 726.373 613.25 726.373C625.239 726.373 634.99 716.622 634.99 704.633ZM724.033 621.652C724.033 609.663 714.281 599.911 702.293 599.911C690.304 599.911 680.553 609.663 680.553 621.652C680.553 633.641 690.304 643.392 702.293 643.392C714.282 643.392 724.033 633.64 724.033 621.652Z" fill="#1E90FF" stroke="black" stroke-width="3"/>
  </g>
  <defs>
    <filter id="filter0_d_17_3033" x="0.0582275" y="0.660034" width="821.884" height="739.68" filterUnits="userSpaceOnUse" color-interpolation-filters="sRGB">
      <feFlood flood-opacity="0" result="BackgroundImageFix"/>
      <feColorMatrix in="SourceAlpha" type="matrix" values="0 0 0 0 0 0 0 0 0 0 0 0 0 0 0 0 0 0 127 0" result="hardAlpha"/>
      <feOffset dx="6" dy="5"/>
      <feComposite in2="hardAlpha" operator="out"/>
      <feColorMatrix type="matrix" values="0 0 0 0 0 0 0 0 0 0 0 0 0 0 0 0 0 0 1 0"/>
      <feBlend mode="normal" in2="BackgroundImageFix" result="effect1_dropShadow_17_3033"/>
      <feBlend mode="normal" in="SourceGraphic" in2="effect1_dropShadow_17_3033" result="shape"/>
    </filter>
  </defs>
</svg>
